<?xml version="1.0" encoding="UTF-8"?>
<svg width="138px" height="26px" viewBox="0 0 138 26" version="1.1" xmlns="http://www.w3.org/2000/svg" xmlns:xlink="http://www.w3.org/1999/xlink">
    <!-- Generator: Sketch 54.1 (76490) - https://sketchapp.com -->
    <title>Scalapay Heart</title>
    <g id="Page-1" stroke="none" stroke-width="1" fill="none" fill-rule="evenodd">
        <g id="Mobile-layout" transform="translate(-118.000000, -27.000000)" fill="#1B2126">
            <path d="M119.257655,36.4514574 L123.403294,32.1612315 C123.824585,31.7252476 124.519543,31.7133363 124.955527,32.134627 C124.964547,32.1433426 124.973416,32.152212 124.982132,32.1612315 L128.155367,35.4451389 C128.576657,35.8811229 129.271616,35.8930341 129.7076,35.4717434 C129.716619,35.4630279 129.725489,35.4541584 129.734204,35.4451389 L132.81642,32.2554253 C133.237711,31.8194413 133.932669,31.8075301 134.368653,32.2288208 C134.377673,32.2375363 134.386542,32.2464058 134.395258,32.2554253 L138.526161,36.530401 C138.921931,36.939974 138.938732,37.5841996 138.564849,38.013845 L129.760046,48.1318212 C129.362053,48.5891718 128.66866,48.6372908 128.21131,48.239298 C128.173219,48.2061511 128.137461,48.1704155 128.10429,48.132346 L119.219424,37.9354262 C118.845093,37.5058166 118.861699,36.8612225 119.257655,36.4514574 Z M143.223654,44.9263158 L144.881356,42.3810526 C145.749676,43.2021053 147.091625,43.6947368 148.380948,43.6947368 C149.301894,43.6947368 150.012337,43.2294737 150.012337,42.5726316 C150.012337,40.5747368 143.828847,41.2863158 143.828847,37.0168421 C143.828847,34.4715789 146.196992,32.8842105 148.723014,32.8842105 C150.380715,32.8842105 152.196294,33.5410526 153.038301,34.2252632 L151.433225,36.7978947 C150.775406,36.3052632 149.907086,35.8947368 148.986141,35.8947368 C148.038883,35.8947368 147.249501,36.2778947 147.249501,36.9621053 C147.249501,38.6863158 153.432992,38.0021053 153.432992,42.6 C153.432992,45.1452632 151.038534,46.7052632 148.354636,46.7052632 C146.591683,46.7052632 144.723479,46.0757895 143.223654,44.9263158 Z M165.536846,41.6694737 L168.168119,43.7221053 C166.668293,45.8021053 164.773777,46.7052632 162.379319,46.7052632 C158.43241,46.7052632 155.53801,43.64 155.53801,39.8084211 C155.53801,35.9494737 158.511348,32.8842105 162.405632,32.8842105 C164.615901,32.8842105 166.589355,33.9515789 167.773428,35.5389474 L165.352657,37.7557895 C164.668526,36.8252632 163.64233,36.1684211 162.405632,36.1684211 C160.432177,36.1684211 158.958664,37.7831579 158.958664,39.8084211 C158.958664,41.8884211 160.405864,43.4210526 162.48457,43.4210526 C163.879144,43.4210526 164.984279,42.5452632 165.536846,41.6694737 Z M179.614155,41.7789474 L179.614155,37.8105263 C178.903711,36.8252632 177.772264,36.1684211 176.456628,36.1684211 C174.45686,36.1684211 173.167537,37.8926316 173.167537,39.8084211 C173.167537,41.8884211 174.614737,43.4210526 176.535566,43.4210526 C177.824889,43.4210526 178.956337,42.7642105 179.614155,41.7789474 Z M183.034809,33.1578947 L183.034809,46.4315789 L179.745718,46.4315789 L179.745718,45.3642105 C178.693209,46.2947368 177.482824,46.7052632 176.1935,46.7052632 C174.298984,46.7052632 172.509719,45.8294737 171.378271,44.4610526 C170.378388,43.2568421 169.746882,41.6147368 169.746882,39.8084211 C169.746882,35.8947368 172.536031,32.8842105 176.009311,32.8842105 C177.456511,32.8842105 178.745835,33.3768421 179.745718,34.2252632 L179.745718,33.1578947 L183.034809,33.1578947 Z M190.402373,27 L190.402373,46.4315789 L186.981718,46.4315789 L186.981718,27 L190.402373,27 Z M203.164045,41.7789474 L203.164045,37.8105263 C202.453601,36.8252632 201.322154,36.1684211 200.006518,36.1684211 C198.006751,36.1684211 196.717427,37.8926316 196.717427,39.8084211 C196.717427,41.8884211 198.164627,43.4210526 200.085456,43.4210526 C201.37478,43.4210526 202.506227,42.7642105 203.164045,41.7789474 Z M206.584699,33.1578947 L206.584699,46.4315789 L203.295609,46.4315789 L203.295609,45.3642105 C202.2431,46.2947368 201.032714,46.7052632 199.743391,46.7052632 C197.848874,46.7052632 196.059609,45.8294737 194.928162,44.4610526 C193.928278,43.2568421 193.296773,41.6147368 193.296773,39.8084211 C193.296773,35.8947368 196.085922,32.8842105 199.559201,32.8842105 C201.006401,32.8842105 202.295725,33.3768421 203.295609,34.2252632 L203.295609,33.1578947 L206.584699,33.1578947 Z M210.531608,53 L210.531608,33.1578947 L213.820699,33.1578947 L213.820699,34.2252632 C214.820583,33.3768421 216.109906,32.8842105 217.557106,32.8842105 C221.030386,32.8842105 223.819535,35.8947368 223.819535,39.8084211 C223.819535,41.6147368 223.214343,43.2568421 222.214459,44.4610526 C221.083012,45.8294737 219.267434,46.7052632 217.372917,46.7052632 C216.083594,46.7052632 214.978459,46.3221053 213.952263,45.5010526 L213.952263,53 L210.531608,53 Z M213.952263,37.8105263 L213.952263,41.7789474 C214.610081,42.7642105 215.741528,43.4210526 217.030852,43.4210526 C218.951681,43.4210526 220.398881,41.8884211 220.398881,39.8084211 C220.398881,37.8926316 219.109557,36.1684211 217.10979,36.1684211 C215.794154,36.1684211 214.662707,36.8252632 213.952263,37.8105263 Z M235.791826,41.7789474 L235.791826,37.8105263 C235.081382,36.8252632 233.949935,36.1684211 232.634299,36.1684211 C230.634532,36.1684211 229.345208,37.8926316 229.345208,39.8084211 C229.345208,41.8884211 230.792408,43.4210526 232.713237,43.4210526 C234.002561,43.4210526 235.134008,42.7642105 235.791826,41.7789474 Z M239.21248,33.1578947 L239.21248,46.4315789 L235.92339,46.4315789 L235.92339,45.3642105 C234.870881,46.2947368 233.660495,46.7052632 232.371172,46.7052632 C230.476655,46.7052632 228.68739,45.8294737 227.555943,44.4610526 C226.556059,43.2568421 225.924554,41.6147368 225.924554,39.8084211 C225.924554,35.8947368 228.713703,32.8842105 232.186982,32.8842105 C233.634182,32.8842105 234.923506,33.3768421 235.92339,34.2252632 L235.92339,33.1578947 L239.21248,33.1578947 Z M247.211549,53 L243.633019,53 L247.158924,45.0905263 L241.449062,33.1578947 L245.211782,33.1578947 L248.948189,41.1221053 L252.395156,33.1578947 L256,33.1578947 L247.211549,53 Z" id="Combined-Shape"></path>
        </g>
    </g>
</svg>